<?xml version="1.0" encoding="utf-8"?>
<!-- Generator: Adobe Illustrator 24.1.3, SVG Export Plug-In . SVG Version: 6.00 Build 0)  -->
<svg version="1.1" id="Layer_1" xmlns="http://www.w3.org/2000/svg" xmlns:xlink="http://www.w3.org/1999/xlink" x="0px" y="0px"
	 viewBox="0 0 512 512" style="enable-background:new 0 0 512 512;" xml:space="preserve">
<style type="text/css">
	.st0{fill:none;stroke:#1D1D1B;stroke-width:15;stroke-miterlimit:10;}
</style>
<rect x="44" y="58.6" class="st0" width="434.3" height="394.6"/>
<g>
	<path d="M88.2,267.8c-7.2-6.5-10.8-16.4-10.8-29.7c0-12.6,3.3-22.1,9.9-28.4c6.6-6.3,16.6-9.5,30-9.5H151l1.6,20.1h-35.2
		c-6.1,0-10.6,1.5-13.6,4.4c-3,2.9-4.5,7.3-4.5,13.3c0,6.5,2,11.3,6,14.4c4,3.1,10.1,4.7,18.2,4.7c8.9,0,15.5-1,19.9-3.1
		c4.4-2,6.6-5.2,6.6-9.6l2.4,17.9c-2.1,3.4-4.6,6.3-7.6,8.5c-3,2.2-6.5,3.9-10.5,5c-4,1.1-8.4,1.7-13.4,1.7
		C106.4,277.6,95.5,274.3,88.2,267.8z M150,194.9c0-8.4-2.1-14.8-6.2-19.5c-4.2-4.6-10-6.9-17.6-6.9c-4.7,0-9.3,0.8-13.9,2.3
		c-4.5,1.6-8.5,3.7-12,6.5l-17-12.5c4.5-5.8,10.4-10.3,17.8-13.6c7.3-3.2,15.5-4.9,24.5-4.9c9.8,0,18.2,1.9,25.2,5.6
		c7,3.7,12.3,9.1,16,16.2c3.7,7.1,5.5,15.6,5.5,25.6v81.9H150V194.9z"/>
	<path d="M207.6,148.3h23.3v179.3h-23.3V148.3z M241.4,271.9c-5.5-3.8-9.5-9.2-12.1-16.1l1.6-26.7c0,5.5,0.9,10.2,2.7,14
		c1.8,3.8,4.5,6.8,7.9,8.8c3.5,2,7.7,3.1,12.6,3.1c7.7,0,13.6-2.5,17.9-7.6c4.2-5,6.3-12.1,6.3-21.3v-27.6c0-9.3-2.1-16.6-6.3-21.7
		s-10.2-7.7-17.9-7.7c-5,0-9.2,1-12.6,2.9c-3.5,2-6.1,4.9-7.9,8.7s-2.7,8.4-2.7,13.7l-2.4-24.6c3.6-7.4,8.3-13.2,14-17.3
		c5.8-4.1,12.2-6.1,19.3-6.1c8.4,0,15.5,2,21.5,6.1c6,4.1,10.5,10,13.6,17.7c3.1,7.8,4.7,17.2,4.7,28.1v27.8
		c0,10.8-1.6,20.1-4.8,27.8c-3.2,7.7-7.9,13.6-14,17.6c-6.2,4.1-13.6,6.1-22.2,6.1C253.3,277.6,246.9,275.7,241.4,271.9z"/>
	<path d="M334.8,148.3h23.3v179.3h-23.3V148.3z M368.6,271.9c-5.5-3.8-9.5-9.2-12.1-16.1l1.6-26.7c0,5.5,0.9,10.2,2.7,14
		c1.8,3.8,4.5,6.8,7.9,8.8c3.5,2,7.7,3.1,12.6,3.1c7.7,0,13.6-2.5,17.9-7.6c4.2-5,6.3-12.1,6.3-21.3v-27.6c0-9.3-2.1-16.6-6.3-21.7
		s-10.2-7.7-17.9-7.7c-4.9,0-9.2,1-12.6,2.9c-3.5,2-6.1,4.9-7.9,8.7s-2.7,8.4-2.7,13.7l-2.4-24.6c3.6-7.4,8.3-13.2,14-17.3
		c5.8-4.1,12.2-6.1,19.3-6.1c8.4,0,15.5,2,21.5,6.1c6,4.1,10.5,10,13.6,17.7c3.1,7.8,4.7,17.2,4.7,28.1v27.8
		c0,10.8-1.6,20.1-4.8,27.8c-3.2,7.7-7.9,13.6-14,17.6c-6.2,4.1-13.6,6.1-22.2,6.1C380.5,277.6,374.1,275.7,368.6,271.9z"/>
</g>
</svg>
