<?xml version="1.0" encoding="utf-8"?>
<!-- Generator: Adobe Illustrator 24.1.3, SVG Export Plug-In . SVG Version: 6.00 Build 0)  -->
<svg version="1.1" id="Layer_1" xmlns="http://www.w3.org/2000/svg" xmlns:xlink="http://www.w3.org/1999/xlink" x="0px" y="0px"
	 viewBox="0 0 512 512" style="enable-background:new 0 0 512 512;" xml:space="preserve">
<style type="text/css">
	.st0{fill:none;stroke:#000000;stroke-width:7;stroke-miterlimit:10;}
</style>
<path class="st0" d="M393,344.9c-306,9-306,6-306,6c-28.2,2.9-52.1-19.5-52-45c0.1-23.3,20.2-44.3,46-45
	c-22.7-58.9,7.7-121.8,58-139c40.5-13.8,89.6,3.5,117,44c2.6-4.2,9.5-14.4,23-21c14.2-6.9,27.2-5.7,32-5c3.9,3.1,15.2,12.8,20,30
	c5,17.8-0.2,32.4-2,37c63.5-23.5,120.9,11,128,48C462.7,284.6,437.4,327,393,344.9z"/>
</svg>
