<?xml version="1.0" encoding="utf-8"?>
<!-- Generator: Adobe Illustrator 24.1.3, SVG Export Plug-In . SVG Version: 6.00 Build 0)  -->
<svg version="1.1" id="Layer_1" xmlns="http://www.w3.org/2000/svg" xmlns:xlink="http://www.w3.org/1999/xlink" x="0px" y="0px"
	 viewBox="0 0 512 512" style="enable-background:new 0 0 512 512;" xml:space="preserve">
<style type="text/css">
	.st0{fill:none;stroke:#000000;stroke-width:22;stroke-miterlimit:10;}
	.st1{fill:none;stroke:#000000;stroke-width:13;stroke-miterlimit:10;}
	.st2{fill:#1D1D1B;}
</style>
<path class="st0" d="M540.5,252"/>
<g>
	<path class="st1" d="M247.2,285.9l12-0.6c99.7-3.1,13.2,0.9,37.8-0.1c8.2-0.3,24.4-1,57-2.3c92.3,118.6,96.1,115.6,96.1,115.6
		c8.4,6.9,19.7,8.6,29.2,4.3c11.5-5.2,14.7-16.8,15.1-18.4c-1.4-76-2.9-151.9-4.3-227.9c-3.1-5.1-11.7-17.7-28.1-24.8
		c-24.9-10.9-48-0.7-51.8,1.1c-52.7,0.2-105.4,0.3-158.1,0.5"/>
	<path class="st1" d="M263.9,285.7l-12-0.3c-99.8-0.4-13.1,1.3-37.8,1c-8.2-0.1-24.5-0.3-57-0.8C66.9,408.3,63.9,404.1,64.2,403.7
		c-8.2,7.1-19.5,9.1-29,5.1C23.5,404,20,392.5,19.5,390.9c-0.6-76-1.2-151.9-1.9-227.9c3-5.2,11.2-18,27.4-25.6
		c24.6-11.6,48-2,51.9-0.3c52.7-1.3,105.4-2.5,158.1-3.8"/>
</g>
<path class="st2" d="M61.3,398.2c-2,1.1-2,1.1-2,1.1l1,9.5l12.5-8.3L61.3,398.2z"/>
</svg>
