<?xml version="1.0" encoding="utf-8"?>
<!-- Generator: Adobe Illustrator 24.1.3, SVG Export Plug-In . SVG Version: 6.00 Build 0)  -->
<svg version="1.1" id="Layer_1" xmlns="http://www.w3.org/2000/svg" xmlns:xlink="http://www.w3.org/1999/xlink" x="0px" y="0px"
	 viewBox="0 0 512 512" style="enable-background:new 0 0 512 512;" xml:space="preserve">
<style type="text/css">
	.st0{fill:none;stroke:#000000;stroke-width:22;stroke-miterlimit:10;}
	.st1{fill:none;stroke:#000000;stroke-width:12;stroke-miterlimit:10;}
</style>
<path class="st0" d="M540.5,252"/>
<rect x="46.3" y="63.5" class="st1" width="421.8" height="381.4"/>
<g>
	<g>
		<path d="M179.9,411.1c-8.8-4.3-16-10.3-21.6-18l22.8-16.4c2.6,4.5,6.2,7.9,11.1,10.4c4.8,2.5,10.4,3.7,16.8,3.7
			c10.8,0,19.3-3.4,25.2-10.1c6-6.7,9-16.2,9-28.4V216.7h27.9v135.6c0,13.8-2.4,25.5-7.2,35.3c-4.8,9.8-11.9,17.2-21.2,22.3
			c-9.3,5.1-20.5,7.7-33.6,7.7C198.5,417.5,188.8,415.4,179.9,411.1z"/>
		<path d="M352.9,414.8c-8.6-1.8-16.6-4.6-24-8.2c-7.4-3.6-14.4-8.2-20.8-13.7l17.4-21.3c7.6,6.6,15.9,11.5,25,14.8
			c9.1,3.3,19,4.9,29.7,4.9c14.4,0,25.6-2.7,33.5-8s11.9-12.9,11.9-22.6v-0.1c0-6.9-1.8-12.4-5.4-16.5c-3.6-4.1-8.3-7.1-13.9-9
			c-5.7-2-13.1-3.8-22.1-5.4c-0.3-0.1-0.6-0.1-0.9-0.1c-0.3,0-0.6,0-0.9-0.1l-2.1-0.4c-13.3-2.3-24.1-4.9-32.5-7.7
			s-15.5-8.1-21.4-15.7c-5.9-7.6-8.9-18.4-8.9-32.5v-0.1c0-12.3,2.8-22.8,8.3-31.5c5.5-8.7,13.6-15.3,24.1-19.9
			c10.6-4.6,23.3-6.8,38.1-6.8c7.1,0,14.1,0.8,21,2.3c6.9,1.6,13.7,3.9,20.4,6.9c6.7,3.1,13.3,6.9,19.8,11.6l-15.9,22.1
			c-7.6-5.6-15.1-9.7-22.6-12.5c-7.5-2.8-15.1-4.2-22.6-4.2c-13.6,0-24.1,2.7-31.7,8.1c-7.5,5.4-11.3,13.1-11.3,23v0.1
			c0,6.8,1.9,12.2,5.8,16.1c3.9,3.9,8.7,6.8,14.5,8.7c5.8,1.9,13.8,3.8,24.1,5.8c0.4,0.1,0.7,0.2,1,0.2c0.3,0,0.7,0.1,1,0.2
			c0.5,0.1,1,0.2,1.5,0.3c0.5,0.1,1,0.2,1.5,0.3c12,2.5,22.1,5.4,30.1,8.8c8.1,3.4,14.8,8.8,20.2,16.3c5.4,7.5,8.1,17.8,8.1,30.8
			v0.3c0,12.1-2.9,22.5-8.6,31.1s-14.1,15.2-25,19.7c-10.9,4.5-24,6.8-39.4,6.8C370.5,417.5,361.4,416.6,352.9,414.8z"/>
	</g>
</g>
</svg>
