<?xml version="1.0" encoding="utf-8"?>
<!-- Generator: Adobe Illustrator 24.1.3, SVG Export Plug-In . SVG Version: 6.00 Build 0)  -->
<svg version="1.1" id="Layer_1" xmlns="http://www.w3.org/2000/svg" xmlns:xlink="http://www.w3.org/1999/xlink" x="0px" y="0px"
	 viewBox="0 0 512 512" style="enable-background:new 0 0 512 512;" xml:space="preserve">
<style type="text/css">
	.st0{fill:none;stroke:#000000;stroke-width:22;stroke-miterlimit:10;}
	.st1{fill:none;stroke:#000000;stroke-width:5;stroke-miterlimit:10;}
	.st2{fill:none;stroke:#000000;stroke-width:4;stroke-miterlimit:10;}
</style>
<path class="st0" d="M540.5,252"/>
<polygon class="st1" points="162.1,381.5 157.8,378.1 124.4,352.1 302.1,123.7 339.8,153 "/>
<rect x="307.8" y="108" transform="matrix(0.7919 0.6106 -0.6106 0.7919 144.6839 -177.3027)" class="st2" width="49.3" height="31.3"/>
<line class="st1" x1="161.5" y1="382.6" x2="109.7" y2="397"/>
<line class="st1" x1="110.8" y1="396.9" x2="123.4" y2="352.7"/>
<g>
	<path d="M110.5,399.2"/>
	<path d="M108.7,396.2"/>
</g>
<path d="M110.4,399.4c-4,0.2-4,0.2-4,0.2l2-3.3l1.2,0.4L110.4,399.4z"/>
<path d="M124.4,390.2c-5.4-5.1-6.7-6.3-7.1-6.6c-0.1-0.1-0.1-0.1-0.1-0.1s2.9-9.6,0,0c-2.9,9.6-2.9,9.6-2.9,9.6s-10,2.9,0,0
	S124.4,390.2,124.4,390.2z"/>
</svg>
