<?xml version="1.0" encoding="utf-8"?>
<!-- Generator: Adobe Illustrator 24.1.3, SVG Export Plug-In . SVG Version: 6.00 Build 0)  -->
<svg version="1.1" id="Layer_1" xmlns="http://www.w3.org/2000/svg" xmlns:xlink="http://www.w3.org/1999/xlink" x="0px" y="0px"
	 viewBox="0 0 512 512" style="enable-background:new 0 0 512 512;" xml:space="preserve">
<style type="text/css">
	.st0{fill:#FFFFFF;stroke:#000000;stroke-width:5;stroke-miterlimit:10;}
</style>
<path class="st0" d="M349.7,308.2c30-39.5,60-79.1,90.1-118.6c-15-11.4-30-22.8-45-34.2c-15.9,18.7-43.9,22.3-64.1,7.6
	c-20.7-15.1-25.7-43.8-11.4-64.9l-57.1-43.4c-33.7,44.4-67.4,88.7-101.1,133.1"/>
<path class="st0" d="M356.7,298.9c-29.7,39.8-59.3,79.6-89,119.4c-15.1-11.2-30.2-22.5-45.3-33.7c13.6-20.5,9.3-48.3-10.5-63.7
	c-20.3-15.7-49.2-12.5-65.6,7l-57.5-42.8c33.3-44.7,66.6-89.3,99.8-134"/>
<rect x="183.3" y="159.5" transform="matrix(-0.6114 0.7913 -0.7913 -0.6114 621.0458 172.5921)" class="st0" width="169.7" height="158.6"/>
<g>
	<path d="M-34.3,101.4c-0.5,0.1-0.5,0.1-0.8,0.6c-0.2,0.4-0.5,1.2-1.1,2.5c-0.6,1.4-0.8,1.9-0.9,2.3c0,0.2-0.2,0.2-0.3,0.2
		c-0.3,0-0.5-0.2-0.5-0.4c0-0.1,0.1-0.2,0.2-0.3c0.3-0.2,0.5-0.4,0.7-0.8c0.2-0.3,0.2-0.5,0.3-0.6c0.1-0.1,0-0.2,0-0.4
		c-0.4-1-0.8-2.1-1-2.6c-0.2-0.4-0.3-0.6-0.8-0.6v-0.2h1.8l0,0.2c-0.4,0.1-0.5,0.1-0.3,0.5l0.8,2.1c0.2-0.5,0.6-1.6,0.8-2.1
		c0.1-0.3,0-0.4-0.4-0.5v-0.2h1.6V101.4z"/>
	<path d="M-32.2,101.1c1.1,0,1.9,0.9,1.9,1.9c0,1.4-1.1,2-1.9,2c-1.2,0-2-0.9-2-1.9C-34.2,101.7-33.1,101.1-32.2,101.1L-32.2,101.1z
		 M-32.3,101.3c-0.5,0-1,0.5-1,1.5c0,1.1,0.5,1.9,1.2,1.9c0.5,0,1-0.3,1-1.5C-31.2,102.1-31.6,101.3-32.3,101.3L-32.3,101.3z"/>
	<path d="M-25.4,104.7c-0.2,0-0.4,0.1-0.7,0.1c-0.2,0.1-0.5,0.1-0.7,0.2l-0.1,0v-0.6c-0.2,0.1-0.4,0.3-0.6,0.4
		c-0.3,0.1-0.4,0.2-0.7,0.2c-0.6,0-1.1-0.4-1.1-1.3v-1.6c0-0.5-0.1-0.5-0.3-0.6l-0.2-0.1v-0.2c0.2,0,0.4,0,0.7-0.1
		c0.2,0,0.5-0.1,0.7-0.1c0,0.3,0,0.7,0,1.2v1.2c0,0.7,0.4,0.9,0.8,0.9c0.3,0,0.6-0.1,0.9-0.4v-2c0-0.5-0.1-0.5-0.4-0.6l-0.3-0.1
		v-0.2c0.2,0,0.6,0,0.8-0.1c0.3,0,0.5-0.1,0.6-0.1v2.8c0,0.4,0.1,0.5,0.4,0.5l0.2,0V104.7z"/>
	<path d="M-23.6,102c0.3-0.5,0.6-0.9,1-0.9c0.3,0,0.5,0.2,0.5,0.4c0,0.2-0.1,0.4-0.3,0.5c-0.1,0-0.2,0-0.2,0
		c-0.1-0.1-0.2-0.2-0.4-0.2c-0.2,0-0.5,0.3-0.7,0.7v1.5c0,0.6,0,0.6,0.7,0.7v0.2H-25v-0.2c0.5-0.1,0.6-0.1,0.6-0.7v-1.8
		c0-0.5,0-0.6-0.5-0.7v-0.2c0.4-0.1,0.8-0.2,1.3-0.4L-23.6,102L-23.6,102z"/>
	<path d="M-17.6,104.9c-0.2,0.1-0.3,0.1-0.4,0.1c-0.6,0-0.9-0.3-0.9-1v-2.5h-0.6l0-0.1l0.2-0.3h0.4v-0.6l0.6-0.6l0.1,0v1.2h1
		c0.1,0.1,0.1,0.3-0.1,0.4h-0.9v2.2c0,0.7,0.3,0.8,0.5,0.8c0.2,0,0.4-0.1,0.5-0.1l0.1,0.2L-17.6,104.9z"/>
	<path d="M-16.7,104.9v-0.2c0.5-0.1,0.6-0.1,0.6-0.7v-1.7c0-0.5,0-0.6-0.5-0.7v-0.2c0.5-0.1,0.9-0.2,1.3-0.3v2.9
		c0,0.6,0.1,0.6,0.6,0.7v0.2H-16.7z M-16.2,99.9c0-0.3,0.2-0.5,0.5-0.5s0.5,0.2,0.5,0.5c0,0.2-0.2,0.5-0.5,0.5
		C-16,100.3-16.2,100.1-16.2,99.9z"/>
	<path d="M-10.9,104.1c-0.4,0.5-1,0.9-1.5,0.9c-1.1,0-1.8-0.9-1.8-1.8c0-0.7,0.3-1.2,0.9-1.7c0.5-0.4,1-0.5,1.3-0.5h0
		c0.4,0,0.6,0.1,0.8,0.2c0.1,0.1,0.1,0.2,0.1,0.3c0,0.2-0.2,0.4-0.3,0.4c-0.1,0-0.1,0-0.2-0.1c-0.3-0.3-0.6-0.4-0.9-0.4
		c-0.5,0-1,0.4-1,1.3c0,1.2,0.9,1.6,1.3,1.6c0.4,0,0.7-0.1,1-0.5L-10.9,104.1z"/>
	<path d="M-7.6,104.9c-0.4-0.4-0.9-1.1-1.4-1.7c-0.1-0.1-0.2-0.2-0.3-0.2c0,0-0.1,0-0.1,0v0.9c0,0.6,0.1,0.6,0.6,0.7v0.2h-2v-0.2
		c0.6-0.1,0.6-0.1,0.6-0.7v-4c0-0.6-0.1-0.6-0.6-0.7v-0.2c0.4,0,0.9-0.2,1.3-0.3v4c0.3-0.1,0.4-0.2,0.5-0.3c0.2-0.2,0.5-0.5,0.6-0.8
		c0.2-0.3,0.1-0.3-0.3-0.4v-0.2l1.8-0.1v0.2c-0.6,0.1-0.8,0.2-1.1,0.5c-0.2,0.2-0.4,0.4-0.7,0.8c0.2,0.3,1.1,1.3,1.4,1.6
		c0.3,0.3,0.5,0.5,0.9,0.5v0.2L-7.6,104.9z"/>
	<path d="M-3,104.1c-0.6,0.7-1.2,0.9-1.5,0.9c-1.1,0-1.7-0.9-1.7-1.8c0-0.6,0.2-1.1,0.6-1.5c0.4-0.4,0.8-0.7,1.3-0.7h0
		c0.7,0,1.3,0.6,1.3,1.3c0,0.2,0,0.2-0.2,0.3c-0.2,0-1.2,0.1-2.3,0.1c0,1.1,0.7,1.6,1.3,1.6c0.4,0,0.7-0.1,1-0.4L-3,104.1z
		 M-4.5,101.4c-0.4,0-0.8,0.3-0.9,1c0.5,0,0.9,0,1.4,0c0.2,0,0.2-0.1,0.2-0.2C-3.7,101.8-4,101.4-4.5,101.4L-4.5,101.4z"/>
	<path d="M-0.7,104.9C-0.8,105-1,105-1,105c-0.6,0-0.9-0.3-0.9-1v-2.5h-0.6l0-0.1l0.2-0.3h0.4v-0.6l0.6-0.6l0.1,0v1.2h1
		c0.1,0.1,0.1,0.3-0.1,0.4h-0.9v2.2c0,0.7,0.3,0.8,0.5,0.8c0.2,0,0.4-0.1,0.5-0.1l0.1,0.2L-0.7,104.9z"/>
</g>
<g>
	<path d="M221.6,294.8l12.1,4.2c1.3,0.5,2.9,1.1,4.1,1.6l0-0.1c-0.8-1-1.9-2.2-2.9-3.4l-8-9.8l1.9-2.6l9.4,12.3
		c4.5,5.9,6.6,9.2,7.2,12.2c0.5,2.1,0.1,3.7-0.2,4.4l-3-1.2c0.2-0.8,0.3-1.9,0-3.2c-0.2-1.1-0.8-2.8-1.9-4.5
		c-0.2-0.3-0.4-0.6-0.6-0.7s-0.5-0.2-0.9-0.4l-19.1-6.1L221.6,294.8z"/>
	<path d="M247.3,276.4c6.2,4.5,6.5,9.9,4.1,13.1c-2.6,3.6-8,4.1-13.3,0.2c-5.6-4-6.8-9.4-4.1-13.1
		C236.8,272.8,242.2,272.7,247.3,276.4z M239.9,287.2c3.7,2.6,7.7,2.9,9.4,0.6c1.7-2.3,0.2-6.1-3.6-8.8c-2.9-2-7.3-3.5-9.4-0.6
		C234.2,281.3,236.7,284.9,239.9,287.2z"/>
	<path d="M261.6,264.9c1.7,1.2,3.3,2.3,4.7,3.2l-1.6,2.2l-2.8-1.8l0,0.1c0.9,1.6,1.7,4.3-0.1,6.7c-1.5,2.1-4.8,3.6-10.7-0.6
		l-9.8-7.1l1.8-2.4l9.3,6.7c3.2,2.3,5.9,3.1,7.5,0.8c1.2-1.6,0.6-3.8-0.5-5.2c-0.4-0.5-0.8-0.9-1.4-1.3l-10.3-7.4l1.8-2.4
		L261.6,264.9z"/>
	<path d="M257.5,255.8c-2-1.4-3.7-2.6-5.3-3.7l1.5-2.1l3.4,2.3l0.1-0.1c-1.8-2.2-2.2-4.7-1-6.4c0.2-0.3,0.4-0.4,0.6-0.6l2.9,2.1
		c-0.2,0.2-0.5,0.4-0.7,0.8c-1.2,1.7-0.5,4.1,1.6,6.1c0.4,0.4,0.8,0.8,1.3,1.1l9,6.4l-1.7,2.4L257.5,255.8z"/>
	<path d="M260.3,230.7l4.8,3.5l2.5-3.5l2.3,1.7l-2.5,3.5l9.1,6.5c2.1,1.5,3.6,1.9,4.6,0.5c0.5-0.6,0.7-1.2,0.8-1.6l2.4,1.5
		c-0.1,0.6-0.5,1.5-1.1,2.5c-0.8,1.1-1.9,1.7-3.2,1.7c-1.4,0-3.1-0.8-5.1-2.2l-9.2-6.6l-1.5,2.1l-2.3-1.7l1.5-2.1l-4-2.9
		L260.3,230.7z"/>
	<path d="M266.8,221.8c1.1,0.7,1.5,1.9,0.8,2.9c-0.6,0.9-1.9,0.9-2.9,0.1c-1.1-0.8-1.5-2-0.8-2.9C264.5,221,265.8,221,266.8,221.8z
		 M286.4,240l-16.8-12.1l1.8-2.4l16.8,12.1L286.4,240z"/>
	<path d="M297.4,223.4c0,0.9-0.5,2.8-1.8,4.6c-2.9,4.1-8.2,4.2-13.4,0.5c-5.2-3.7-6.9-9.2-3.8-13.6c1-1.4,2.4-2.4,3.3-2.8l2,2.3
		c-0.8,0.3-1.9,0.9-2.8,2.3c-2.2,3.1-0.6,6.8,3,9.3c3.9,2.8,7.7,2.5,9.6-0.2c1-1.4,1.2-2.6,1.3-3.6L297.4,223.4z"/>
	<path d="M292.7,212L292.7,212c-0.3-0.8-0.7-1.8-1-2.6l-3-8.1l2.1-2.9l3.2,10.2l14.2,1.2l-2.1,3l-11.4-1.1l0.8,2.5l6.3,4.5L300,221
		l-24.7-17.7l1.7-2.4L292.7,212z"/>
	<path d="M302.5,201c4.2,2.9,7.4,2,9.2-0.4c1.3-1.8,1.6-3.1,1.8-4.3l2.5,1.2c-0.1,1.2-0.6,3.1-2.2,5.2c-3,4.1-8.2,4.2-13.2,0.5
		s-7.4-8.9-4.5-12.8c3.2-4.4,8.8-2.1,11.9,0.1c0.6,0.4,1.1,0.9,1.4,1.1L302.5,201z M305.5,192.2c-1.9-1.4-5.4-2.9-7.4-0.2
		c-1.8,2.5,0.3,5.6,2.3,7.3L305.5,192.2z"/>
	<path d="M299.8,175.5l4.8,3.5l2.5-3.5l2.3,1.7l-2.5,3.5l9.1,6.5c2.1,1.5,3.6,1.9,4.6,0.5c0.5-0.6,0.7-1.2,0.8-1.6l2.4,1.5
		c-0.1,0.6-0.5,1.5-1.1,2.5c-0.8,1.1-1.9,1.7-3.2,1.7c-1.4,0-3.1-0.8-5.1-2.2l-9.2-6.6l-1.5,2.1l-2.3-1.7l1.5-2.1l-4-2.9
		L299.8,175.5z"/>
</g>
</svg>
