<?xml version="1.0" encoding="utf-8"?>
<!-- Generator: Adobe Illustrator 24.1.3, SVG Export Plug-In . SVG Version: 6.00 Build 0)  -->
<svg version="1.1" id="Layer_1" xmlns="http://www.w3.org/2000/svg" xmlns:xlink="http://www.w3.org/1999/xlink" x="0px" y="0px"
	 viewBox="0 0 512 512" style="enable-background:new 0 0 512 512;" xml:space="preserve">
<style type="text/css">
	.st0{fill:none;stroke:#000000;stroke-width:22;stroke-miterlimit:10;}
	.st1{fill:#D4143B;}
</style>
<path class="st0" d="M540.5,252"/>
<path class="st1" d="M281.8,463c31.5-20.7,95.7-68.8,136.2-151.8c33.6-69,35.6-130.9,33.9-164.7c0.4-3.1,6.2-50.3-33.7-78.7
	c-28.1-20.1-60.5-18.3-67.9-17.7c-6.8,0-31.5,0.8-52.6,17.3c-29.1,22.7-26.5,55.9-26.1,59.8c-3.6-8.4-12-45.5-51.8-61.5
	c-16.3-6.6-41.3-15.6-51.8-15.8c-28.4-4.7-53.4,14.4-69.4,32.2c-11.6,13-13.6,27.3-14,34.2c1.6,39.9,10,107.8,50.3,182.9
	C180.7,384.4,245.2,437.1,281.8,463z"/>
</svg>
