<?xml version="1.0" encoding="utf-8"?>
<!-- Generator: Adobe Illustrator 24.1.3, SVG Export Plug-In . SVG Version: 6.00 Build 0)  -->
<svg version="1.1" id="Layer_1" xmlns="http://www.w3.org/2000/svg" xmlns:xlink="http://www.w3.org/1999/xlink" x="0px" y="0px"
	 viewBox="0 0 512 512" style="enable-background:new 0 0 512 512;" xml:space="preserve">
<style type="text/css">
	.st0{fill:none;stroke:#000000;stroke-width:22;stroke-miterlimit:10;}
	.st1{fill:#F4BD63;stroke:#000000;stroke-width:5;stroke-miterlimit:10;}
	.st2{fill:#E72687;stroke:#000000;stroke-width:3.9999;stroke-miterlimit:9.9997;}
	.st3{fill:#6DB52C;stroke:#000000;stroke-width:5;stroke-miterlimit:10;}
	.st4{fill:#F5BE64;}
</style>
<path class="st0" d="M540.5,252"/>
<polygon class="st1" points="162.1,381.5 157.8,378.1 124.4,352.1 302.1,123.7 339.8,153 "/>
<rect x="316.8" y="99" transform="matrix(0.6106 -0.7919 0.7919 0.6106 31.5603 311.4069)" class="st2" width="31.3" height="49.3"/>
<g>
	<line class="st3" x1="161.5" y1="382.6" x2="109.7" y2="397"/>
	<line class="st3" x1="110.8" y1="396.9" x2="123.4" y2="352.7"/>
</g>
<g>
	<path d="M110.5,399.2"/>
	<path d="M108.7,396.2"/>
</g>
<path d="M110.4,399.4c-4,0.2-4,0.2-4,0.2l2-3.3l1.2,0.4L110.4,399.4z"/>
<path d="M124.4,390.2c-5.4-5.1-6.7-6.3-7.1-6.6c-0.1-0.1-0.1-0.1-0.1-0.1s2.9-9.6,0,0s-2.9,9.6-2.9,9.6s-10,2.9,0,0
	S124.4,390.2,124.4,390.2z"/>
<path class="st4" d="M157.7,381.1c-32,8.7-33.3,9.1-33.3,9.1l-7.1-6.6c0,0,6.6-28.1,7.9-27.9c0.1,0-0.2,0.7,0.2,0.7
	c0.4,0,1.1,0.4,1.5,0.6c0,0,1.1,1.1,2.7,2.2c0.1,0.1,0.6,0.4,1.2,0.8c0.1,0.1,0.3,0.2,0.5,0.3c1.6,1,2.2,2.2,5.7,4.9
	c0.9,0.7,1.5,1.1,2.4,1.8C145.7,371.6,151.6,376.5,157.7,381.1z"/>
</svg>
