<?xml version="1.0" encoding="utf-8"?>
<!-- Generator: Adobe Illustrator 24.1.3, SVG Export Plug-In . SVG Version: 6.00 Build 0)  -->
<svg version="1.1" id="Layer_1" xmlns="http://www.w3.org/2000/svg" xmlns:xlink="http://www.w3.org/1999/xlink" x="0px" y="0px"
	 viewBox="0 0 512 512" style="enable-background:new 0 0 512 512;" xml:space="preserve">
<style type="text/css">
	.st0{fill:#00A13A;}
	.st1{fill:#FFFFFF;}
</style>
<rect x="45.5" y="193.7" class="st0" width="416.2" height="144"/>
<g>
	<path class="st1" d="M113.9,301.7c-3.1-0.7-5.9-1.6-8.6-2.9c-2.7-1.3-5.1-2.9-7.4-4.9l6.2-7.6c2.7,2.3,5.7,4.1,8.9,5.3
		c3.3,1.2,6.8,1.8,10.6,1.8c5.1,0,9.1-1,12-2.9s4.2-4.6,4.2-8.1v0c0-2.5-0.6-4.4-1.9-5.9c-1.3-1.4-2.9-2.5-5-3.2
		c-2-0.7-4.7-1.3-7.9-1.9c-0.1,0-0.2,0-0.3,0c-0.1,0-0.2,0-0.3,0l-0.7-0.1c-4.8-0.8-8.6-1.7-11.6-2.8s-5.5-2.9-7.6-5.6
		c-2.1-2.7-3.2-6.6-3.2-11.6v0c0-4.4,1-8.1,3-11.3c2-3.1,4.8-5.5,8.6-7.1c3.8-1.6,8.3-2.4,13.6-2.4c2.5,0,5,0.3,7.5,0.8
		c2.5,0.6,4.9,1.4,7.3,2.5c2.4,1.1,4.7,2.5,7.1,4.1l-5.7,7.9c-2.7-2-5.4-3.5-8.1-4.5c-2.7-1-5.4-1.5-8.1-1.5c-4.9,0-8.6,1-11.3,2.9
		c-2.7,1.9-4,4.7-4,8.2v0c0,2.4,0.7,4.4,2.1,5.8c1.4,1.4,3.1,2.4,5.2,3.1c2.1,0.7,4.9,1.4,8.6,2.1c0.1,0,0.3,0.1,0.4,0.1
		c0.1,0,0.2,0,0.4,0.1c0.2,0,0.3,0.1,0.5,0.1c0.2,0,0.4,0.1,0.5,0.1c4.3,0.9,7.9,1.9,10.8,3.1c2.9,1.2,5.3,3.1,7.2,5.8
		c1.9,2.7,2.9,6.4,2.9,11v0.1c0,4.3-1,8-3.1,11.1s-5,5.4-8.9,7c-3.9,1.6-8.6,2.4-14.1,2.4C120.2,302.7,116.9,302.3,113.9,301.7z"/>
	<path class="st1" d="M172.8,282.1c0,3.5,0.9,6.3,2.7,8.2c1.8,1.9,4.4,2.9,7.6,2.9c3.3,0,5.8-0.9,7.6-2.6c1.8-1.7,2.7-4.2,2.7-7.4
		l0.7,10.6c-1,2.5-2.7,4.6-5.1,6.3c-2.3,1.7-5.2,2.5-8.6,2.5c-5.6,0-9.9-1.8-13-5.4c-3-3.6-4.6-8.7-4.6-15.2v-30.8h10V282.1z
		 M193.4,251.2h9.9v50.7h-9.9V251.2z"/>
	<path class="st1" d="M218.5,230.9h10v71h-10V230.9z M232.9,300.4c-2.3-1.5-4.1-3.7-5.2-6.4l0.7-10.6c0,2.2,0.4,4,1.2,5.6
		c0.8,1.5,1.9,2.7,3.4,3.5c1.5,0.8,3.3,1.2,5.4,1.2c3.3,0,5.8-1,7.6-3s2.7-4.8,2.7-8.5v-11c0-3.7-0.9-6.6-2.7-8.6s-4.4-3.1-7.6-3.1
		c-2.1,0-3.9,0.4-5.4,1.2c-1.5,0.8-2.6,1.9-3.4,3.4s-1.2,3.3-1.2,5.4l-1-9.8c1.5-3,3.5-5.2,6-6.9c2.5-1.6,5.2-2.4,8.3-2.4
		c3.6,0,6.6,0.8,9.2,2.4c2.6,1.6,4.5,4,5.8,7.1c1.3,3.1,2,6.8,2,11.2v11c0,4.3-0.7,8-2.1,11c-1.4,3.1-3.4,5.4-6,7s-5.8,2.4-9.5,2.4
		C238,302.7,235.3,301.9,232.9,300.4z"/>
	<path class="st1" d="M272.9,251.2h10v50.7h-10V251.2z M303.1,271.2c0-3.6-0.9-6.3-2.6-8.3s-4.2-2.9-7.5-2.9c-3.3,0-5.8,0.9-7.5,2.6
		c-1.8,1.7-2.7,4.2-2.7,7.3l-1-9.8c1.6-3.1,3.6-5.4,6.1-7.1c2.5-1.7,5.3-2.5,8.4-2.5c3.5,0,6.6,0.8,9.1,2.4c2.5,1.6,4.4,4,5.7,7.1
		c1.3,3.1,2,6.8,2,11.2v30.8h-10V271.2z M333.4,271.2c0-3.6-0.9-6.3-2.8-8.3s-4.5-2.9-7.8-2.9c-3.1,0-5.5,0.9-7.2,2.8
		c-1.7,1.9-2.5,4.6-2.5,8l-2-9.8c1.6-3.4,3.7-5.9,6.3-7.8c2.6-1.8,5.5-2.8,8.7-2.8c3.6,0,6.8,0.8,9.4,2.4s4.6,4,5.9,7.1
		c1.4,3.1,2,6.8,2,11.2v30.8h-10V271.2z"/>
	<path class="st1" d="M358.5,230.9h10v10h-10V230.9z M358.5,251.2h10v50.7h-10V251.2z"/>
	<path class="st1" d="M379.7,251.2h22.9v9h-22.9V251.2z M387.8,298.8c-1.9-2.3-2.9-5.6-2.9-10v-52.2h10v52.3c0,1.2,0.2,2.2,0.7,2.9
		c0.5,0.7,1.2,1,2.1,1h4.8v9.5h-5.8C392.7,302.2,389.7,301,387.8,298.8z"/>
</g>
</svg>
